<?xml version="1.0" encoding="UTF-8"?>
<svg xmlns="http://www.w3.org/2000/svg" xmlns:xlink="http://www.w3.org/1999/xlink" id="Layer_2" data-name="Layer 2" viewBox="0 0 491.93 491.93">
  <defs>
    <style>
      .cls-1 {
        fill: url(#linear-gradient);
      }

      .cls-2 {
        fill: url(#linear-gradient-3);
      }

      .cls-3 {
        fill: url(#linear-gradient-2);
      }
    </style>
    <linearGradient id="linear-gradient" x1="0" y1="219.12" x2="245.96" y2="219.12" gradientUnits="userSpaceOnUse">
      <stop offset=".12" stop-color="#fff" stop-opacity=".8"></stop>
      <stop offset=".3" stop-color="#fff" stop-opacity=".76"></stop>
      <stop offset=".6" stop-color="#fff" stop-opacity=".67"></stop>
      <stop offset=".97" stop-color="#fff" stop-opacity=".51"></stop>
      <stop offset="1" stop-color="#fff" stop-opacity=".5"></stop>
    </linearGradient>
    <linearGradient id="linear-gradient-2" x1="307.71" y1="52.48" x2="462.25" y2="331.95" gradientUnits="userSpaceOnUse">
      <stop offset="0" stop-color="#fff" stop-opacity=".3"></stop>
      <stop offset=".38" stop-color="#fff" stop-opacity=".44"></stop>
      <stop offset="1" stop-color="#fff" stop-opacity=".7"></stop>
    </linearGradient>
    <linearGradient id="linear-gradient-3" x1="124.32" y1="395.76" x2="470.66" y2="395.76" gradientUnits="userSpaceOnUse">
      <stop offset="0" stop-color="#fff" stop-opacity=".3"></stop>
      <stop offset=".26" stop-color="#fff" stop-opacity=".33"></stop>
      <stop offset=".64" stop-color="#fff" stop-opacity=".4"></stop>
      <stop offset="1" stop-color="#fff" stop-opacity=".5"></stop>
    </linearGradient>
  </defs>
  <g id="Layer_1-2" data-name="Layer 1">
    <g>
      <path class="cls-1" d="m86.49,371.65l29.11-50.43h0L245.96,95.43l-29.11-50.43c-12.24-21.21-28.14-32.45-44.27-33.75-56.86,17.76-107.46,56.09-139.6,111.75C-25.7,224.65-3.56,350.77,79.45,426.98c-7-14.63-5.24-34.07,7.04-55.33Z"></path>
      <path class="cls-3" d="m368.93,32.98C306.96-2.8,235.89-8.53,172.58,11.25c16.12,1.3,32.02,12.55,44.27,33.75l29.11,50.43h0l130.36,225.79h58.23c24.59,0,42.32-8.21,51.48-21.62,22.85-102.13-21.68-211.52-117.1-266.62Z"></path>
      <path class="cls-2" d="m434.55,321.22h-58.27l.06.11H115.58s.06-.11.06-.11h-.05l-29.11,50.43c-12.28,21.26-14.04,40.71-7.04,55.33,13.04,11.98,27.58,22.73,43.55,31.95,117.63,67.91,268.03,27.61,335.94-90.02,12.82-22.2,21.77-45.56,27.09-69.32-9.16,13.41-26.89,21.62-51.48,21.62Z"></path>
    </g>
  </g>
</svg>
